<svg width="32" height="32" viewBox="0 0 32 32" fill="none" xmlns="http://www.w3.org/2000/svg">
<g clip-path="url(#clip0_84_261)">
<path d="M24 0H8C3.58172 0 0 3.58172 0 8V24C0 28.4183 3.58172 32 8 32H24C28.4183 32 32 28.4183 32 24V8C32 3.58172 28.4183 0 24 0Z" fill="#7299FF"/>
<path d="M24.2727 3H7.72727C5.11647 3 3 5.11647 3 7.72727V24.2727C3 26.8835 5.11647 29 7.72727 29H24.2727C26.8835 29 29 26.8835 29 24.2727V7.72727C29 5.11647 26.8835 3 24.2727 3Z" fill="white"/>
<path d="M4 9H28" stroke="#C7D9F0" stroke-width="0.8"/>
<path d="M4 16H28" stroke="#C7D9F0" stroke-width="0.8"/>
<path d="M4 23H28" stroke="#C7D9F0" stroke-width="0.8"/>
<path d="M8 4V28" stroke="#C7D9F0" stroke-width="0.8"/>
<path d="M14.375 10H12.625C10 10 10 10 10 12.5714V19.4286C10 22 10 22 12.625 22H14.375C17 22 17 22 17 19.4286V12.5714C17 10 17 10 14.375 10Z" fill="#BCBEF1"/>
<path d="M23 15H21C18 15 18 15 18 17.625V19.375C18 22 18 22 21 22H23C26 22 26 22 26 19.375V17.625C26 15 26 15 23 15Z" fill="#FFC29F"/>
</g>
<defs>
<clipPath id="clip0_84_261">
<rect width="32" height="32" fill="white"/>
</clipPath>
</defs>
</svg>
